<svg width="43" height="12" viewBox="0 0 43 12" fill="none" xmlns="http://www.w3.org/2000/svg">
<path d="M0.616477 2.14062V0.818182H8.49645V2.14062H5.3196V11H3.78835V2.14062H0.616477ZM10.6184 11V3.36364H12.1049V11H10.6184ZM11.3691 2.18537C11.1106 2.18537 10.8886 2.09919 10.7029 1.92685C10.5207 1.75118 10.4295 1.54238 10.4295 1.30043C10.4295 1.05516 10.5207 0.846354 10.7029 0.674005C10.8886 0.498342 11.1106 0.410511 11.3691 0.410511C11.6277 0.410511 11.8481 0.498342 12.0304 0.674005C12.216 0.846354 12.3088 1.05516 12.3088 1.30043C12.3088 1.54238 12.216 1.75118 12.0304 1.92685C11.8481 2.09919 11.6277 2.18537 11.3691 2.18537ZM18.1694 3.36364V4.55682H13.9982V3.36364H18.1694ZM15.1168 1.53409H16.6033V8.75781C16.6033 9.04616 16.6464 9.26326 16.7326 9.40909C16.8188 9.55161 16.9298 9.64938 17.0657 9.70241C17.2049 9.75213 17.3557 9.77699 17.5181 9.77699C17.6374 9.77699 17.7418 9.7687 17.8313 9.75213C17.9208 9.73556 17.9904 9.7223 18.0401 9.71236L18.3086 10.9403C18.2224 10.9735 18.0998 11.0066 17.9407 11.0398C17.7816 11.0762 17.5827 11.0961 17.3441 11.0994C16.953 11.1061 16.5884 11.0365 16.2504 10.8906C15.9123 10.7448 15.6388 10.5194 15.43 10.2145C15.2212 9.90956 15.1168 9.52675 15.1168 9.06605V1.53409ZM21.9643 0.818182V11H20.4778V0.818182H21.9643ZM27.7553 11.1541C27.003 11.1541 26.355 10.9934 25.8114 10.6719C25.2712 10.3471 24.8536 9.89134 24.5586 9.30469C24.2669 8.71473 24.1211 8.02367 24.1211 7.23153C24.1211 6.44934 24.2669 5.75994 24.5586 5.16335C24.8536 4.56676 25.2646 4.10109 25.7915 3.76633C26.3219 3.43158 26.9416 3.2642 27.6509 3.2642C28.0818 3.2642 28.4994 3.33546 28.9038 3.47798C29.3081 3.6205 29.671 3.84422 29.9925 4.14915C30.314 4.45407 30.5676 4.85014 30.7532 5.33736C30.9388 5.82126 31.0316 6.40956 31.0316 7.10227V7.62926H24.9613V6.51562H29.5749C29.5749 6.12453 29.4954 5.77817 29.3363 5.47656C29.1772 5.17164 28.9535 4.93134 28.6651 4.75568C28.3801 4.58002 28.0453 4.49219 27.6609 4.49219C27.2433 4.49219 26.8787 4.59493 26.5671 4.80043C26.2589 5.0026 26.0202 5.26776 25.8512 5.59588C25.6855 5.92069 25.6026 6.27367 25.6026 6.65483V7.52486C25.6026 8.03527 25.6921 8.46946 25.8711 8.82741C26.0534 9.18537 26.3069 9.45881 26.6317 9.64773C26.9566 9.83333 27.3361 9.92614 27.7702 9.92614C28.052 9.92614 28.3088 9.88636 28.5408 9.80682C28.7728 9.72396 28.9734 9.60133 29.1424 9.43892C29.3114 9.27652 29.4407 9.07599 29.5302 8.83736L30.9371 9.09091C30.8245 9.50521 30.6223 9.86813 30.3306 10.1797C30.0423 10.4879 29.6793 10.7282 29.2418 10.9006C28.8076 11.0696 28.3121 11.1541 27.7553 11.1541Z" fill="#20102B"/>
<path d="M39.4989 6.54545L39.5934 4.44744L37.8235 5.58594L37.2816 4.64134L39.1609 3.68182L37.2816 2.7223L37.8235 1.7777L39.5934 2.91619L39.4989 0.818182H40.5778L40.4833 2.91619L42.2532 1.7777L42.7951 2.7223L40.9158 3.68182L42.7951 4.64134L42.2532 5.58594L40.4833 4.44744L40.5778 6.54545H39.4989Z" fill="#FF0000"/>
</svg>
